<?xml version="1.0" standalone="no"?><!DOCTYPE svg PUBLIC "-//W3C//DTD SVG 1.1//EN" "http://www.w3.org/Graphics/SVG/1.1/DTD/svg11.dtd"><svg t="1521953889717" class="icon" style="" viewBox="0 0 1024 1024" version="1.1" xmlns="http://www.w3.org/2000/svg" p-id="16562" xmlns:xlink="http://www.w3.org/1999/xlink" width="200" height="200"><defs><style type="text/css"></style></defs><path d="M767.953408 768.016384q0-14.856192-10.856448-25.71264t-25.71264-10.856448-25.71264 10.856448-10.856448 25.71264 10.856448 25.71264 25.71264 10.856448 25.71264-10.856448 10.856448-25.71264zm146.276352 0q0-14.856192-10.856448-25.71264t-25.71264-10.856448-25.71264 10.856448-10.856448 25.71264 10.856448 25.71264 25.71264 10.856448 25.71264-10.856448 10.856448-25.71264zm73.138176-127.991808l0 182.84544q0 22.85568-15.998976 38.854656t-38.854656 15.998976l-841.089024 0q-22.85568 0-38.854656-15.998976t-15.998976-38.854656l0-182.84544q0-22.85568 15.998976-38.854656t38.854656-15.998976l265.69728 0 77.13792 77.709312q33.140736 31.997952 77.709312 31.997952t77.709312-31.997952l77.709312-77.709312 265.125888 0q22.85568 0 38.854656 15.998976t15.998976 38.854656zm-185.7024-325.122048q9.713664 23.427072-7.999488 39.99744l-255.983616 255.983616q-10.285056 10.856448-25.71264 10.856448t-25.71264-10.856448l-255.983616-255.983616q-17.713152-16.570368-7.999488-39.99744 9.713664-22.284288 33.712128-22.284288l146.276352 0 0-255.983616q0-14.856192 10.856448-25.71264t25.71264-10.856448l146.276352 0q14.856192 0 25.71264 10.856448t10.856448 25.71264l0 255.983616 146.276352 0q23.998464 0 33.712128 22.284288z" p-id="16563" fill="#2d8cf0"></path></svg>