<?xml version="1.0" standalone="no"?><!DOCTYPE svg PUBLIC "-//W3C//DTD SVG 1.1//EN" "http://www.w3.org/Graphics/SVG/1.1/DTD/svg11.dtd"><svg t="1516848932418" class="icon" style="" viewBox="0 0 1024 1024" version="1.1" xmlns="http://www.w3.org/2000/svg" p-id="4375" data-spm-anchor-id="a313x.7781069.0.i17" xmlns:xlink="http://www.w3.org/1999/xlink" width="200" height="200"><defs><style type="text/css"></style></defs><path d="M893.16 205.73H476.67a53.9 53.9 0 0 0-53.84 53.84v7.16h29.9a40.8 40.8 0 0 1 40.75 40.75v340.63a40.8 40.8 0 0 1-40.75 40.75h-29.58a53.91 53.91 0 0 0 53.52 48.06h58.39a13 13 0 0 1 13 13v63.32l74.06-72.61a13 13 0 0 1 9.1-3.72h261.94A53.9 53.9 0 0 0 947 683.1V259.57a53.9 53.9 0 0 0-53.84-53.84zM605 526.65a45.38 45.38 0 1 1 45.38-45.38A45.43 45.43 0 0 1 605 526.65z m159.79 0a45.38 45.38 0 1 1 45.38-45.38 45.43 45.43 0 0 1-45.36 45.38z" fill="#C5EAFF" p-id="4376"></path><path d="M605 435.89a45.38 45.38 0 1 0 45.38 45.38A45.43 45.43 0 0 0 605 435.89zM764.81 435.89a45.38 45.38 0 1 0 45.38 45.38 45.43 45.43 0 0 0-45.38-45.38z" fill="#EF6A6A" p-id="4377"></path><path d="M493.49 648.11V307.48a40.8 40.8 0 0 0-40.75-40.75h-335A40.8 40.8 0 0 0 77 307.48v340.63a40.8 40.8 0 0 0 40.75 40.75h210.68a13 13 0 0 1 9.1 3.72l55.24 54.16v-44.87a13 13 0 0 1 13-13h47a40.8 40.8 0 0 0 40.72-40.76z" fill="#F9DB91" p-id="4378"></path><path d="M893.16 192.73H476.67a66.83 66.83 0 0 0-66.57 61H117.75A53.75 53.75 0 0 0 64 307.48v340.63a53.75 53.75 0 0 0 53.75 53.75h210.68l64.51 63.25a7.39 7.39 0 0 0 5.23 2.17 7.54 7.54 0 0 0 7.6-7.56v-57.85h6.78a66.83 66.83 0 0 0 64.12 48.06h58.39v71.94a9.38 9.38 0 0 0 9.45 9.4 9.19 9.19 0 0 0 6.5-2.7l80.21-78.64h261.94A66.84 66.84 0 0 0 960 683.1V259.57a66.84 66.84 0 0 0-66.84-66.84zM379.77 701.87v13.92l-33.14-32.49a26 26 0 0 0-18.2-7.43H117.75A27.79 27.79 0 0 1 90 648.11V307.48a27.79 27.79 0 0 1 27.75-27.75h335a27.79 27.79 0 0 1 27.75 27.75v340.63a27.79 27.79 0 0 1-27.75 27.75h-47a26 26 0 0 0-25.98 26.01zM934 683.1a40.88 40.88 0 0 1-40.84 40.84H631.22a26 26 0 0 0-18.2 7.43l-52 50.94v-32.38a26 26 0 0 0-26-26h-58.35a40.86 40.86 0 0 1-36.24-22.06h12.3a53.75 53.75 0 0 0 53.75-53.75V307.48a53.75 53.75 0 0 0-53.75-53.75h-16.47a40.89 40.89 0 0 1 40.41-35h416.49A40.88 40.88 0 0 1 934 259.57z" fill="#707070" p-id="4379" data-spm-anchor-id="a313x.7781069.0.i18" class="selected"></path><path d="M605 422.89a58.38 58.38 0 1 0 58.38 58.38A58.38 58.38 0 0 0 605 422.89z m0 90.75a32.38 32.38 0 1 1 32.38-32.38A32.41 32.41 0 0 1 605 513.65zM764.81 422.89a58.38 58.38 0 1 0 58.38 58.38 58.38 58.38 0 0 0-58.38-58.38z m0 90.75a32.38 32.38 0 1 1 32.38-32.38 32.41 32.41 0 0 1-32.38 32.39zM408.56 402.72H161.93a13 13 0 1 0 0 26h246.63a13 13 0 0 0 0-26zM349.08 534.26H161.93a13 13 0 0 0 0 26h187.15a13 13 0 1 0 0-26z" fill="#512C56" p-id="4380"></path></svg>