<?xml version="1.0" standalone="no"?><!DOCTYPE svg PUBLIC "-//W3C//DTD SVG 1.1//EN" "http://www.w3.org/Graphics/SVG/1.1/DTD/svg11.dtd"><svg t="1516279291550" class="icon" style="" viewBox="0 0 1024 1024" version="1.1" xmlns="http://www.w3.org/2000/svg" p-id="4361" xmlns:xlink="http://www.w3.org/1999/xlink" width="200" height="200"><defs><style type="text/css"></style></defs><path d="M188.337231 803.918769c-35.209846 0-72.625231-7.483077-109.725539-27.254154a39.227077 39.227077 0 0 1-20.558769-39.778461 39.620923 39.620923 0 0 1 29.932308-33.319385c28.514462-6.774154 41.275077-16.699077 43.716923-23.788307 1.969231-5.671385-1.496615-13.390769-3.702154-16.226462C65.772308 585.885538 0 503.571692 0 392.034462c0-195.426462 159.035077-354.461538 354.461538-354.461539a354.855385 354.855385 0 0 1 352.33477 393.846154 39.384615 39.384615 0 1 1-78.296616-8.349539A276.007385 276.007385 0 0 0 354.461538 116.342154c-152.024615 0-275.692308 123.667692-275.692307 275.692308 0 83.889231 51.830154 148.637538 106.653538 217.245538 19.534769 24.418462 33.161846 59.864615 20.795077 96.019692a88.221538 88.221538 0 0 1-9.452308 19.53477c72.073846-3.229538 133.12-48.521846 133.986462-49.23077a39.384615 39.384615 0 0 1 23.709538-7.876923c44.977231 0 87.748923-10.476308 127.133539-31.035077a39.384615 39.384615 0 1 1 36.470154 69.868308 356.352 356.352 0 0 1-151.000616 39.699692c-26.545231 17.408-96.649846 57.659077-178.727384 57.659077z" fill="#999999" p-id="4362"></path><path d="M872.211692 986.427077c-61.676308 0-114.372923-29.932308-136.822154-44.898462A276.007385 276.007385 0 0 1 472.615385 666.151385c0-152.024615 123.667692-275.692308 275.692307-275.692308s275.692308 123.667692 275.692308 275.692308c0 87.04-50.569846 150.291692-95.153231 205.981538l-4.883692 9.373539c0.787692 1.260308 7.089231 6.616615 24.260923 10.712615a39.463385 39.463385 0 0 1 9.373538 73.097846 179.436308 179.436308 0 0 1-85.385846 21.110154zM748.307692 469.228308c-108.622769 0-196.923077 88.379077-196.923077 196.923077s88.300308 196.923077 196.923077 196.923077c8.822154 0 17.565538 2.993231 24.497231 8.507076 0.315077 0.236308 33.949538 26.072615 76.248615 33.87077-10.082462-31.271385 1.890462-61.912615 15.36-78.769231C907.421538 772.962462 945.230769 725.622154 945.230769 666.151385c0-108.622769-88.300308-196.923077-196.923077-196.923077zM236.307692 348.632615a39.384615 39.384615 0 1 0 0 78.769231 39.384615 39.384615 0 0 0 0-78.769231zM472.615385 348.632615a39.384615 39.384615 0 1 0 0 78.769231 39.384615 39.384615 0 0 0 0-78.769231z" fill="#999999" p-id="4363"></path><path d="M827.076923 584.625231a39.384615 39.384615 0 1 0 0 78.769231 39.384615 39.384615 0 0 0 0-78.769231zM669.538462 584.625231a39.384615 39.384615 0 1 0 0 78.769231 39.384615 39.384615 0 0 0 0-78.769231z" fill="#999999" p-id="4364"></path></svg>